<?xml version="1.0" encoding="UTF-8" standalone="no"?>
<!-- Created with Inkscape (http://www.inkscape.org/) -->

<svg
   xmlns:dc="http://purl.org/dc/elements/1.1/"
   xmlns:cc="http://creativecommons.org/ns#"
   xmlns:rdf="http://www.w3.org/1999/02/22-rdf-syntax-ns#"
   xmlns:svg="http://www.w3.org/2000/svg"
   xmlns="http://www.w3.org/2000/svg"
   xmlns:sodipodi="http://sodipodi.sourceforge.net/DTD/sodipodi-0.dtd"
   xmlns:inkscape="http://www.inkscape.org/namespaces/inkscape"
   width="210mm"
   height="297mm"
   viewBox="0 0 744.09448819 1052.3622047"
   id="svg2"
   version="1.1"
   inkscape:version="0.91 r13725"
   sodipodi:docname="Logo FInal Cores Convertido com Inkscape.svg">
  <defs
     id="defs4">
    <clipPath
       id="clipPath3350"
       clipPathUnits="userSpaceOnUse">
      <path
         inkscape:connector-curvature="0"
         id="path3352"
         d="m 0,283.465 425.197,0 L 425.197,0 0,0 0,283.465 Z" />
    </clipPath>
    <clipPath
       id="clipPath3378"
       clipPathUnits="userSpaceOnUse">
      <path
         inkscape:connector-curvature="0"
         id="path3380"
         d="m 0,283.465 425.197,0 L 425.197,0 0,0 0,283.465 Z" />
    </clipPath>
    <clipPath
       id="clipPath3394"
       clipPathUnits="userSpaceOnUse">
      <path
         inkscape:connector-curvature="0"
         id="path3396"
         d="m 0,283.465 425.197,0 L 425.197,0 0,0 0,283.465 Z" />
    </clipPath>
    <clipPath
       id="clipPath3445"
       clipPathUnits="userSpaceOnUse">
      <path
         inkscape:connector-curvature="0"
         id="path3447"
         d="M 0,113 402,113 402,0 0,0 0,113 Z" />
    </clipPath>
  </defs>
  <sodipodi:namedview
     id="base"
     pagecolor="#ffffff"
     bordercolor="#666666"
     borderopacity="1.0"
     inkscape:pageopacity="0.0"
     inkscape:pageshadow="2"
     inkscape:zoom="0.35"
     inkscape:cx="-152.14286"
     inkscape:cy="520"
     inkscape:document-units="px"
     inkscape:current-layer="layer1"
     showgrid="false"
     inkscape:window-width="1920"
     inkscape:window-height="1017"
     inkscape:window-x="-8"
     inkscape:window-y="-8"
     inkscape:window-maximized="1" />
  <metadata
     id="metadata7">
    <rdf:RDF>
      <cc:Work
         rdf:about="">
        <dc:format>image/svg+xml</dc:format>
        <dc:type
           rdf:resource="http://purl.org/dc/dcmitype/StillImage" />
        <dc:title></dc:title>
      </cc:Work>
    </rdf:RDF>
  </metadata>
  <g
     inkscape:label="Camada 1"
     inkscape:groupmode="layer"
     id="layer1">
    <g
       transform="matrix(1.25,0,0,-1.25,154.30316,565.67716)"
       inkscape:label="Logo_LUDES_FINAL_CORES"
       id="g3439">
      <g
         id="g3441">
        <g
           clip-path="url(#clipPath3445)"
           id="g3443">
          <g
             transform="translate(356.4844,21.2949)"
             id="g3449">
            <path
               inkscape:connector-curvature="0"
               id="path3451"
               style="fill:#3474a1;fill-opacity:1;fill-rule:nonzero;stroke:none"
               d="m 0,0 c -0.192,-0.153 -0.425,-0.219 -0.672,-0.197 -0.261,0.018 -0.475,0.127 -0.644,0.326 -0.168,0.196 -0.239,0.425 -0.214,0.686 l -0.941,0.072 c -0.041,-0.515 0.106,-0.969 0.441,-1.366 0.336,-0.396 0.761,-0.617 1.277,-0.658 0.522,-0.042 0.98,0.105 1.376,0.44 L 0.81,-0.528 C 0.561,-0.306 0.319,-0.126 0,0" />
          </g>
          <g
             transform="translate(358.9727,20.2383)"
             id="g3453">
            <path
               inkscape:connector-curvature="0"
               id="path3455"
               style="fill:#3474a1;fill-opacity:1;fill-rule:nonzero;stroke:none"
               d="M 0,0 C -0.052,0.241 -0.239,0.562 -0.442,0.705 -0.656,0.856 -0.891,0.91 -1.147,0.863 -1.4,0.818 -1.536,0.642 -1.75,0.47 l -0.771,0.541 c 0.295,0.425 0.698,0.683 1.209,0.775 0.51,0.093 0.98,-0.009 1.403,-0.305 C 0.521,1.186 0.783,0.779 0.875,0.268 L 0.922,-0.087 C 0.589,-0.101 0.325,-0.106 0,0" />
          </g>
          <g
             transform="translate(344.8428,7.6699)"
             id="g3457">
            <path
               inkscape:connector-curvature="0"
               id="path3459"
               style="fill:#3474a1;fill-opacity:1;fill-rule:nonzero;stroke:none"
               d="M 0,0 0.229,-0.175 C 0.527,0.059 0.772,0.288 0.939,0.591 0.806,0.708 0.74,0.845 0.706,0.987 l -1.291,0 C -0.545,0.622 -0.351,0.292 0,0" />
          </g>
          <g
             transform="translate(346.7617,7.1445)"
             id="g3461">
            <path
               inkscape:connector-curvature="0"
               id="path3463"
               style="fill:#3474a1;fill-opacity:1;fill-rule:nonzero;stroke:none"
               d="M 0,0 C -0.121,0.487 -0.47,0.869 -1.041,1.147 L -1.77,0.415 c 0.233,-0.202 0.469,-0.331 0.531,-0.571 0.062,-0.242 -0.009,-0.466 -0.214,-0.668 -0.19,-0.193 -0.624,-0.37 -0.948,-0.419 -0.145,-0.308 -0.136,-0.563 -0.118,-0.876 l 0.478,0.044 c 0.688,0.088 1.232,0.336 1.633,0.746 C -0.011,-0.929 0.127,-0.483 0,0" />
          </g>
          <text
             id="text3465"
             style="font-variant:normal;font-weight:normal;font-stretch:normal;font-size:74.89550018px;font-family:Circo;-inkscape-font-specification:Circo;writing-mode:lr-tb;fill:#3474a1;fill-opacity:1;fill-rule:nonzero;stroke:none"
             transform="matrix(1,0,0,-1,67.9854,29.3291)">
            <tspan
               id="tspan3467"
               sodipodi:role="line"
               y="0"
               x="0 54.486477 120.84389 189.67285 246.14406">LUDES</tspan>
          </text>
          <g
             transform="translate(4.0273,80.293)"
             id="g3469">
            <path
               inkscape:connector-curvature="0"
               id="path3471"
               style="fill:#3474a1;fill-opacity:1;fill-rule:nonzero;stroke:none"
               d="m 0,0 c 0.458,-1.643 0.876,-3.408 1.221,-5.321 20.15,2.157 17.73,-22.892 1.446,-21.59 -0.927,-1.798 -1.896,-3.731 -2.803,-5.626 -1.042,-3.581 -2.309,-6.514 -3.622,-8.887 -0.12,-0.478 -0.2,-0.899 -0.224,-1.239 -0.316,-4.758 1.107,-4.584 3.052,-4.529 0.596,0.015 11.84,3.212 17.43,4.224 -2.22,20.734 24.372,17.573 21.415,0 5.589,-1.012 16.834,-4.209 17.429,-4.224 1.8,-0.048 3.148,-0.193 3.092,3.537 -2.165,3.401 -4.356,8.234 -5.748,14.905 -0.271,0.535 -0.541,1.063 -0.808,1.582 -20.173,-1.739 -16.938,24.379 0.491,21.447 0.403,2.216 0.893,4.243 1.442,6.097 C 50.172,2.586 45.011,4.768 37.915,6.054 40.872,23.629 14.28,26.789 16.5,6.054 9.002,4.695 3.666,2.337 0,0" />
          </g>
          <text
             id="text3473"
             style="font-variant:normal;font-weight:normal;font-stretch:normal;font-size:17.47559929px;font-family:Circo;-inkscape-font-specification:Circo;writing-mode:lr-tb;fill:#3474a1;fill-opacity:1;fill-rule:nonzero;stroke:none"
             transform="matrix(1,0,0,-1,0,8.293)">
            <tspan
               id="tspan3475"
               sodipodi:role="line"
               y="0"
               x="0 12.713499 25.627968 38.717194 51.561756 55.825806 68.670372 82.074158 87.194504 100.19635 106.52252 115.19041 128.36702 141.36887 154.77264 167.61722 180.61906 194.2675 207.26935 216.81104 221.93138 234.93323 243.60112 256.44568 265.11359 280.47464 285.595 307.78027 320.69473 324.95877 337.96063 350.70035 363.70218">Ludologia, Engenharia e Simulacao</tspan>
          </text>
        </g>
      </g>
    </g>
  </g>
</svg>
